<svg xmlns="http://www.w3.org/2000/svg" xmlns:xlink="http://www.w3.org/1999/xlink" viewBox="0 0 350 330">
  <animate
    attributeName="opacity"
    from="1"
    to="0"
    dur="0.5s"
    begin="1.5s"
    fill="freeze"
  />
  <g>
    <animateTransform
      attributeName="transform"
      type="skewY"
      values="0; -1; 0"
      dur="2s"
      additive="sum"
      repeatCount="indefinite"
    />
    <path d="M175.44,249.28h48.36a13.27,13.27,0,0,0,13-10.65l3.74-18.32H172.36v25.89A3.09,3.09,0,0,0,175.44,249.28Z" fill="none" stroke="#fff" stroke-linecap="round" stroke-linejoin="round" stroke-width="2"/>
    <path d="M235.79,241.69h-9.22a8.31,8.31,0,0,1-8.28-8.31V220.31" fill="none" stroke="#fff" stroke-linecap="round" stroke-miterlimit="10" stroke-width="2"/>
    <path d="M185.64,231.88h-2.05a3.45,3.45,0,0,0-3.43,3.45v2.92a3.45,3.45,0,0,0,3.43,3.45h2.05a3.45,3.45,0,0,0,3.43-3.45v-2.92A3.45,3.45,0,0,0,185.64,231.88Z" fill="none" stroke="#fff" stroke-linecap="round" stroke-linejoin="round" stroke-width="2"/>
  </g>
  <g>
    <animateTransform
      attributeName="transform"
      type="translate"
      values="0, 0; 0, 3; 0, 0"
      dur="2s"
      repeatCount="indefinite"
    />
    <path d="M123.23,173.34h9.16a3.29,3.29,0,0,1,3.29,3.3v5.71a3.29,3.29,0,0,1-3.29,3.3H115.57a1.32,1.32,0,0,1-1.32-1.32v-2a9,9,0,0,1,9-9" fill="#068e4d"/>
    <path d="M123.23,173.34h9.16a3.29,3.29,0,0,1,3.29,3.3v5.71a3.29,3.29,0,0,1-3.29,3.3H115.57a1.32,1.32,0,0,1-1.32-1.32v-2A9,9,0,0,1,123.23,173.34Z" fill="none" stroke="#fff" stroke-linecap="round" stroke-linejoin="round" stroke-width="2"/>
    <path d="M123.23,207.39h9.16a3.29,3.29,0,0,0,3.29-3.3v-5.71a3.29,3.29,0,0,0-3.29-3.3H115.57a1.32,1.32,0,0,0-1.32,1.32v2a9,9,0,0,0,9,9" fill="#068e4d"/>
    <path d="M123.23,207.39h9.16a3.29,3.29,0,0,0,3.29-3.3v-5.71a3.29,3.29,0,0,0-3.29-3.3H115.57a1.32,1.32,0,0,0-1.32,1.32v2A9,9,0,0,0,123.23,207.39Z" fill="none" stroke="#fff" stroke-linecap="round" stroke-linejoin="round" stroke-width="2"/>
  </g>
  <g>
    <path d="M205,227.08c43.38,0,74.86-15.55,74.86-37s-31.48-37-74.86-37c-27.94,0-55.36,13.53-73.46,24.87a14.3,14.3,0,0,0,0,24.21c18.09,11.33,45.52,24.87,73.46,24.87" fill="#068e4d"/>
    <path d="M205,227.08c43.38,0,74.86-15.55,74.86-37s-31.48-37-74.86-37c-27.94,0-55.36,13.53-73.46,24.87a14.3,14.3,0,0,0,0,24.21C149.63,213.54,177.06,227.08,205,227.08Z" fill="none" stroke="#fff" stroke-width="2"/>
    <path d="M205,176.09c-28.23,0-56.07,5.76-72.81,10-3.95,1-6,2.66-6.08,4.34A12.93,12.93,0,0,1,132.18,179c16.74-10.5,44.58-24.68,72.81-24.68,44.81,0,73.64,16,73.64,35.75,0,0.12,0,.24,0,0.37-0.37-7.95-29.1-14.37-73.63-14.37" fill="#36e69a"/>
    <path d="M132.18,195.12c16.74,4.27,44.58,10,72.81,10,44.14,0,72.75-6.32,73.6-14.18-0.86,19.34-29.45,34.86-73.6,34.86-28.23,0-56.07-14.19-72.81-24.68a12.88,12.88,0,0,1-6-10.18c0.26,1.61,2.26,3.18,6,4.14" fill="#068e4d"/>
    <path d="M132.18 186.12C148.92 181.85 176.76 176.12 204.99 176.12C249.52 176.12 278.25 182.55 278.6 190.5C278.6 190.67 278.6 190.84 278.6 191.01C277.75 198.87 249.15 205.18 205 205.18C176.77 205.18 148.93 199.42 132.19 195.18C128.4 194.18 126.4 192.65 126.19 191.05V190.54C126.32 188.85 128.34 187.18 132.29 186.17" fill="#25B774">
      <animate
        attributeName="d"
        values="M132.18 186.12C148.92 181.85 176.76 176.12 204.99 176.12C249.52 176.12 278.25 182.55 278.6 190.5C278.6 190.67 278.6 190.84 278.6 191.01C277.75 198.87 249.15 205.18 205 205.18C176.77 205.18 148.93 199.42 132.19 195.18C128.4 194.18 126.4 192.65 126.19 191.05V190.54C126.32 188.85 128.34 187.18 132.29 186.17;
        M132.18 186.12C148.92 181.85 176.77 171 205 171C249.53 171 278.25 182.55 278.6 190.5C278.6 190.67 278.6 190.84 278.6 191.01C277.75 198.87 249.15 199.5 205 199.5C176.77 199.5 148.93 199.42 132.19 195.18C128.4 194.18 126.4 192.65 126.19 191.05V190.54C126.32 188.85 128.34 187.18 132.29 186.17;
        M132.18 186.12C148.92 181.85 176.76 176.12 204.99 176.12C249.52 176.12 278.25 182.55 278.6 190.5C278.6 190.67 278.6 190.84 278.6 191.01C277.75 198.87 249.15 205.18 205 205.18C176.77 205.18 148.93 199.42 132.19 195.18C128.4 194.18 126.4 192.65 126.19 191.05V190.54C126.32 188.85 128.34 187.18 132.29 186.17"
        dur="2s"
        repeatCount="indefinite"
      />
    </path>
  </g>
  <path d="M204.25 231.88H202.2C201.288 231.885 200.416 232.251 199.773 232.898C199.131 233.544 198.77 234.418 198.77 235.33V238.25C198.77 239.162 199.131 240.036 199.773 240.682C200.416 241.329 201.288 241.695 202.2 241.7H204.25C205.162 241.695 206.034 241.329 206.677 240.682C207.319 240.036 207.68 239.162 207.68 238.25V235.33C207.681 234.878 207.594 234.431 207.422 234.013C207.25 233.595 206.998 233.215 206.68 232.895C206.361 232.574 205.983 232.32 205.566 232.146C205.149 231.972 204.702 231.881 204.25 231.88V231.88Z" fill="none" stroke="#fff" stroke-linecap="round" stroke-linejoin="round" stroke-width="2">
    <animate
      attributeName="d"
      to="M272.437 152.42H260.433C255.096 152.459 249.988 155.182 246.225 159.994C242.462 164.806 240.35 171.316 240.35 178.102V199.838C240.35 206.624 242.462 213.134 246.225 217.946C249.988 222.758 255.096 225.481 260.433 225.52H272.437C277.774 225.481 282.882 222.758 286.645 217.946C290.408 213.134 292.52 206.624 292.52 199.838V178.102C292.528 174.739 292.014 171.407 291.009 168.297C290.004 165.186 288.527 162.358 286.662 159.973C284.797 157.588 282.581 155.694 280.14 154.398C277.699 153.102 275.082 152.43 272.437 152.42V152.42Z"
      dur="0.5s"
      begin="1s"
      fill="freeze"
    />
  </path>
  <g>
    <animateTransform
      attributeName="transform"
      type="translate"
      values="0, 0; 0, -2; 0, 0"
      dur="2s"
      repeatCount="indefinite"
    />
    <path d="M123.23,173.34h9.16a3.29,3.29,0,0,1,3.29,3.3v5.71a3.29,3.29,0,0,1-3.29,3.3H115.57a1.32,1.32,0,0,1-1.32-1.32v-2a9,9,0,0,1,9-9" fill="#068e4d"/>
    <path d="M123.23,173.34h9.16a3.29,3.29,0,0,1,3.29,3.3v5.71a3.29,3.29,0,0,1-3.29,3.3H115.57a1.32,1.32,0,0,1-1.32-1.32v-2A9,9,0,0,1,123.23,173.34Z" fill="none" stroke="#fff" stroke-linecap="round" stroke-linejoin="round" stroke-width="2"/>
    <path d="M123.23,207.39h9.16a3.29,3.29,0,0,0,3.29-3.3v-5.71a3.29,3.29,0,0,0-3.29-3.3H115.57a1.32,1.32,0,0,0-1.32,1.32v2a9,9,0,0,0,9,9" fill="#068e4d"/>
    <path d="M123.23,207.39h9.16a3.29,3.29,0,0,0,3.29-3.3v-5.71a3.29,3.29,0,0,0-3.29-3.3H115.57a1.32,1.32,0,0,0-1.32,1.32v2A9,9,0,0,0,123.23,207.39Z" fill="none" stroke="#fff" stroke-linecap="round" stroke-linejoin="round" stroke-width="2"/>
  </g>
  <g>
    <animateMotion id="firstCloud" calcMode="linear" dur="1s" from="150, 0" to="-50, 0" />
    <animate id="firstCloudExit" begin="firstCloud.end - 0.5s" attributeName="opacity" to="0" dur="0.5s" fill="freeze" />
    <path d="M41.77,97.54H77.06a12.4,12.4,0,1,1,24.8,0h17.93" fill="none" stroke="#fff" stroke-linecap="round" stroke-miterlimit="10" stroke-width="2"/>
    <line x1="68.95" y1="107.8" x2="131.86" y2="107.8" fill="none" stroke="#fff" stroke-linecap="round" stroke-miterlimit="10" stroke-width="2"/>
  </g>
  <g opacity="0">
    <animate begin="firstCloud.end" attributeName="opacity" from="0" to="1" dur="0.5s" fill="freeze" />
    <animateMotion id="secondCloud" begin="firstCloudExit.end" dur="2s" from="0, 0" to="-200, 0" />
    <animate begin="secondCloud.end - 0.5s" attributeName="opacity" from="1" to="0" dur="0.5s" fill="freeze" />
    <path d="M278.75,82.91H251.39a12.4,12.4,0,1,0-24.8,0H208.65" fill="none" stroke="#fff" stroke-linecap="round" stroke-miterlimit="10" stroke-width="2"/>
    <line x1="287.01" y1="82.91" x2="309.21" y2="82.91" fill="none" stroke="#fff" stroke-linecap="round" stroke-miterlimit="10" stroke-width="2"/>
    <line x1="258.96" y1="93.19" x2="298.74" y2="93.19" fill="none" stroke="#fff" stroke-linecap="round" stroke-miterlimit="10" stroke-width="2"/>
  </g>
  <line x1="106.25" y1="179.49" x2="84.05" y2="179.49" fill="none" stroke="#fff" stroke-linecap="round" stroke-miterlimit="10" stroke-width="2">
    <animate
      attributeName="x2"
      values="84.05; 80; 84.05"
      dur="0.5s"
      repeatCount="indefinite"
      begin="0.2s"
    />
  </line>
  <line x1="106.25" y1="201.23" x2="84.05" y2="201.23" fill="none" stroke="#fff" stroke-linecap="round" stroke-miterlimit="10" stroke-width="2">
    <animate
      attributeName="x2"
      values="84.05; 80; 84.05"
      dur="0.5s"
      repeatCount="indefinite"
      begin="0.4s"
    />
  </line>
  <line x1="106.25" y1="190.98" x2="68.77" y2="190.98" fill="none" stroke="#fff" stroke-linecap="round" stroke-miterlimit="10" stroke-width="2">
    <animate
      attributeName="x2"
      values="68.77; 60; 68.77"
      dur="0.5s"
      repeatCount="indefinite"
      begin="0.6s"
    />
  </line>
  <g>
    <path d="M289.94 327.88H244.88L212.8 296.58C212.459 296.292 212.027 296.134 211.58 296.134C211.133 296.134 210.701 296.292 210.36 296.58L200.16 306.81C199.847 307.08 199.448 307.229 199.035 307.229C198.622 307.229 198.223 307.08 197.91 306.81L178.91 286.64C178.477 286.273 177.928 286.072 177.36 286.072C176.792 286.072 176.243 286.273 175.81 286.64L149.39 312.28C149.078 312.552 148.679 312.702 148.265 312.702C147.851 312.702 147.452 312.552 147.14 312.28L144.51 309.36C144.195 309.071 143.783 308.911 143.355 308.911C142.927 308.911 142.515 309.071 142.2 309.36L124.63 329H80.78" fill="none" stroke="#fff" stroke-linecap="round" stroke-miterlimit="10" stroke-width="2">
      <animate
        attributeName="d"
        values="M 289.94 327.88 L 244.88 327.88 L 212.8 296.58 C 212.459 296.292 212.027 296.134 211.58 296.134 C 211.133 296.134 210.701 296.292 210.36 296.58 L 200.16 306.81 C 199.847 307.08 199.448 307.229 199.035 307.229 C 198.622 307.229 198.223 307.08 197.91 306.81 L 178.91 286.64 C 178.477 286.273 177.928 286.072 177.36 286.072 C 176.792 286.072 176.243 286.273 175.81 286.64 L 149.39 312.28 C 149.078 312.552 148.679 312.702 148.265 312.702 C 147.851 312.702 147.452 312.552 147.14 312.28 L 144.51 309.36 C 144.195 309.071 143.783 308.911 143.355 308.911 C 142.927 308.911 142.515 309.071 142.2 309.36 L 133.415 319.18 L 124.63 329 L 80.78 329;
        M 290 329 L 245 329 L 214 329 C 213.659 328.711 211.447 329 211 329 C 210.553 329 209.341 328.711 209 329 L 200 329 C 199.687 329.27 199.413 329 199 329 C 198.587 329 197.813 329.27 197.5 329 L 179 329 C 178.567 328.633 175.568 329 175 329 C 174.432 329 171.433 328.633 171 329 L 149 329 C 148.688 329.272 147.914 329 147.5 329 C 147.086 329 147.312 329.272 147 329 L 144.5 329 C 144.185 328.711 143.428 329 143 329 C 142.572 329 142.315 328.711 142 329 L 135 329 L 124.63 329 L 80.78 329"
        dur="0.5s"
        begin="0.7s"
        fill="freeze"
      />
    </path>
    <path d="M289.94,328H200.15c-0.86,0-1.56,0-2.25,0h-19c-1.5,0-2.23,0-3.1,0h-32.3c-1.09,0-1.66,0-2.31,0H80.78" fill="none" stroke="#fff" stroke-linecap="round" stroke-miterlimit="10" stroke-width="2"/>
  </g>
</svg>

